<?xml version="1.0" encoding="UTF-8" standalone="no"?>
<!-- Created with Inkscape (http://www.inkscape.org/) -->

<svg
   width="610.05798mm"
   height="763.33954mm"
   viewBox="0 0 610.05798 763.33954"
   version="1.1"
   id="svg1"
   xml:space="preserve"
   xmlns="http://www.w3.org/2000/svg"
   xmlns:svg="http://www.w3.org/2000/svg"><defs
     id="defs1" /><g
     id="layer1"
     transform="translate(2927.2031,279.13377)"><path
       style="fill:#99cbfc;fill-opacity:1;stroke-width:0.999999"
       d="m -2625.807,483.1934 c -2.8175,-2.16307 -3.5223,-5.16558 -4.6471,-19.79003 -0.424,-5.48955 -1.1203,-14.18753 -1.5513,-19.32878 -1.7785,-21.22244 -2.0479,-26.57187 -1.4229,-28.26108 0.3796,-1.02831 2.0552,-2.3816 3.9784,-3.21476 1.8266,-0.79139 5.7746,-2.57409 8.7738,-3.96163 6.1452,-2.84314 11.4164,-5.24491 17.1376,-7.80866 2.1419,-0.96001 5.6254,-2.57665 7.741,-3.59263 6.2821,-3.01747 4.5372,-3.8782 25.8672,12.75818 5.6302,4.39125 10.4497,8.53875 10.7098,9.21671 0.824,2.14708 0.5126,4.8182 -0.6122,5.24974 -2.5159,0.96549 -31.4233,-7.96738 -46.3384,-14.3193 -1.0191,-0.4341 -2.0371,-0.60539 -2.2618,-0.38067 -0.2254,0.22478 -1.0347,7.68689 -1.8002,16.5824 -0.7649,8.89551 -1.7492,20.02956 -2.1877,24.74236 -0.4371,4.71283 -1.2153,13.1202 -1.7271,18.68308 -0.8661,9.41001 -1.0808,10.26431 -3.0851,12.26884 -2.3426,2.34256 -6.3287,2.87998 -8.574,1.15609 z m -59.9138,-58.17772 c 0,-3.51656 3.1771,-6.11853 24.2085,-19.82685 10.4636,-6.82036 23.5762,-15.3675 29.1389,-18.99373 13.768,-8.97526 21.9659,-15.33257 23.4352,-18.17357 1.3082,-2.52955 1.0289,-4.59419 -0.613,-4.53488 -0.5488,0.0177 -5.7304,3.52431 -11.5143,7.78774 -5.7839,4.26344 -11.0421,7.66112 -11.6845,7.55036 -0.9085,-0.15681 -1.2213,-1.67296 -1.4059,-6.81404 -0.1328,-3.63696 -0.044,-7.71297 0.212,-9.05772 0.5106,-2.76841 1.1297,-3.08328 11.3186,-5.75644 3.642,-0.95546 9.6008,-2.59154 13.2428,-3.63575 3.6417,-1.04423 8.5491,-2.40548 10.9056,-3.02504 2.3564,-0.61955 4.9855,-1.4242 5.8422,-1.7881 7.9488,-3.37559 12.2207,-5.65887 15.8741,-8.48527 2.3636,-1.82837 4.6663,-3.20349 5.1172,-3.05585 1.6671,0.54577 4.2617,5.43664 5.147,9.70221 2.0934,10.08374 -2.2446,21.95861 -10.9694,30.02708 -6.3414,5.86446 -19.888,14.13688 -31.5275,19.25234 -2.142,0.94151 -5.7456,2.54892 -8.0076,3.57203 -2.262,1.02311 -4.2811,1.86023 -4.4873,1.86023 -0.2076,0 -1.861,0.68284 -3.677,1.51741 -1.8163,0.83458 -9.4367,4.13404 -16.9346,7.33211 -7.4974,3.19806 -19.2348,8.29913 -26.0827,11.33565 -7.1587,3.17449 -13.5319,5.521 -14.9949,5.521 -2.3021,0 -2.5451,-0.22035 -2.5451,-2.31092 z m 26.1398,-43.73254 c -8.6801,-8.79385 -14.9233,-17.95542 -15.6816,-23.0118 -0.7927,-5.28598 0.069,-11.26694 2.2475,-15.56161 2.5397,-5.01231 13.56,-15.54717 20.4577,-19.55681 7.0604,-4.1042 10.2233,-5.71193 28.5823,-14.52933 20.9034,-10.03928 22.9242,-12.25248 18.7726,-20.55618 -2.9139,-5.82757 -4.5124,-5.89842 -4.7319,-0.20978 -0.1812,4.69789 -1.5728,7.17489 -5.554,9.88587 -3.4327,2.33736 -15.4726,7.28389 -17.729,7.28389 -1.8318,0 -1.8698,-0.13935 -1.8698,-6.83745 0,-4.72883 0.3489,-7.33742 1.1355,-8.45864 1.229,-1.75428 5.8246,-3.92254 15.6126,-7.36582 3.4274,-1.20576 10.2631,-3.62956 15.1903,-5.38623 18.7507,-6.68552 33.7881,-11.59093 34.39,-11.21881 1.302,0.80474 4.6136,13.47058 5.4135,20.7044 0.9923,8.97428 0,19.36839 -2.5474,26.17733 -4.0089,10.79655 -12.6639,19.87771 -24.238,25.43152 -6.0207,2.8891 -18.4488,7.213 -28.2084,9.81404 -12.33,3.28622 -15.1606,4.15113 -17.5271,5.3565 -4.1062,2.09159 -4.6398,3.85428 -4.7399,15.65921 -0.05,5.7839 -0.3269,11.36056 -0.6139,12.39259 -0.6941,2.48135 -5.2946,6.13456 -8.5432,6.78432 -2.4767,0.49523 -2.9288,0.18195 -9.8178,-6.79722 z m -19.0941,-59.7377 c -9.6684,-9.66853 -11.9529,-19.99498 -8.1346,-36.77141 2.5851,-11.35885 11.1143,-23.43407 21.5649,-30.53098 6.8986,-4.6848 20.4234,-10.63778 35.6103,-15.67407 10.2975,-3.41473 27.1229,-11.23303 33.423,-15.53069 5.9526,-4.06056 9.4124,-8.99904 9.4124,-13.43546 0,-3.07743 -2.1923,-7.39438 -5.5672,-10.96282 -4.3839,-4.6352 -15.7275,-12.42293 -16.9737,-11.65279 -0.5199,0.32117 -0.8267,5.26753 -0.8382,13.50862 0,7.15105 -0.3356,14.37161 -0.7248,16.04572 -1.2131,5.23026 -3.5762,6.69308 -18.397,11.38833 -5.2771,1.67182 -5.0081,2.5475 -5.0081,-16.29332 0,-19.6492 -0.071,-19.43071 7.0341,-22.04139 7.4477,-2.73717 25.7834,-9.16894 34.2514,-12.01473 4.4989,-1.51179 12.7683,-4.47741 18.3766,-6.59026 5.6086,-2.11284 11.2094,-3.84154 12.4468,-3.84154 4.762,0 15.4784,14.41817 19.5731,26.33468 3.2503,9.45777 3.3647,23.57516 0.2561,31.69903 -4.565,11.93435 -14.3381,23.23637 -25.1738,29.11201 -6.6805,3.62254 -19.9607,8.89259 -35.6059,14.13008 -1.0716,0.35855 -5.9788,2.09903 -10.906,3.86769 -4.9266,1.76867 -10.4413,3.73479 -12.2536,4.36917 -5.0408,1.76421 -12.4535,6.00434 -15.4679,8.84763 -5.5254,5.21153 -6.235,9.86551 -2.6578,17.4239 1.0099,2.13429 1.4755,4.0186 1.081,4.37689 -3.1121,2.82809 -28.5126,18.75001 -29.9116,18.75001 -0.4928,0 -2.9271,-2.03144 -5.4104,-4.5143 z m -6.3757,-73.9025 c -6.8213,-5.00504 -14.5775,-13.03312 -17.6372,-18.25488 -4.9168,-8.39205 -5.8452,-11.8529 -5.9327,-22.12215 -0.071,-8.21233 0.1501,-9.9154 1.815,-14.02157 4.5256,-11.16294 15.8123,-24.16079 28.499,-32.81815 12.9993,-8.87075 23.2935,-13.59659 49.8409,-22.88052 26.2682,-9.18631 37.0763,-15.4911 43.9781,-25.65409 3.1762,-4.67743 6.2657,-12.817089 6.2657,-16.508149 0,-4.6131 -3.0462,-10.624239 -7.2549,-14.315686 -4.4043,-3.862933 -4.2228,-5.023377 0.7902,-5.047355 1.3711,-0.0065 4.1753,-0.327153 6.2317,-0.712391 2.0562,-0.385289 8.1201,-1.485536 13.4756,-2.445057 9.663,-1.731197 20.9352,-5.029733 26.8265,-7.849731 4.5695,-2.187472 5.652,-1.899142 8.2505,2.198354 5.8308,9.194606 9.9454,25.919646 8.9451,36.359565 -1.4812,15.45076 -9.385,29.07282 -22.7893,39.27679 -15.1701,11.54798 -25.0563,16.61546 -48.1489,24.67981 -9.4026,3.28369 -20.6013,7.19502 -24.8855,8.69186 -4.2845,1.49683 -10.3463,3.58731 -13.4708,4.6455 -6.437,2.18011 -9.9498,4.02999 -16.0288,8.44133 -14.7744,10.72132 -12.1976,27.74041 5.8113,38.37847 1.2548,0.74117 2.1636,1.70006 2.0199,2.13086 -0.1414,0.43082 -2.397,1.54799 -5.0077,2.48261 -8.0537,2.88293 -16.1317,6.96919 -23.3122,11.79176 -7.1283,4.78738 -11.3342,7.18794 -12.5951,7.18794 -0.402,0 -2.9615,-1.63582 -5.6864,-3.63512 z m -6.0922,-96.6221 c -3.0277,-0.60347 -13.5066,-8.31643 -19.8931,-14.64174 -6.2827,-6.22285 -11.4107,-15.36773 -12.8382,-22.89475 -1.1672,-6.15556 -0.969,-17.983189 0.4151,-24.850369 1.4374,-7.124322 7.2654,-19.49399 12.3717,-26.257596 12.0956,-16.022206 28.7334,-27.520332 49.9034,-34.487393 11.9876,-3.945032 20.4433,-5.211741 42.8438,-6.41813 13.8397,-0.745328 18.031,-1.160191 31.9379,-3.161273 11.3329,-1.630659 15.8852,-2.512137 26.3865,-5.109063 10.6763,-2.64021 22.9065,-6.8013655 28.8773,-9.8249485 6.8032,-3.44506302 15.9745,-9.9428152 17.0966,-12.1122052 2.2346,-4.3214693 3.0499,-9.1519103 2.0544,-12.1692193 -1.3879,-4.204572 -4.3619,-5.912818 -10.2694,-5.898774 -6.8161,0.01767 -10.0545,1.34501 -17.3038,7.100611 -10.6881,8.485853 -16.488,10.4375223 -29.1459,9.8077213 -8.5819,-0.4270513 -16.6929,-2.1522993 -20.7356,-4.4108103 -4.7294,-2.642016 -6.9864,-10.938458 -5.1351,-18.872107 3.5453,-15.189705 13.8162,-26.121806 28.933,-30.79587 3.2884,-1.016657 7.626,-1.300845 20.5274,-1.344828 16.221,-0.05524 21.153,0.448253 31.5488,3.220901 2.3567,0.628477 5.3359,1.419156 6.6213,1.757036 16.1948,4.257578 28.5149,14.760761 34.0347,29.01538 2.0094,5.189658 2.4276,21.3381763 0.7119,27.4900012 -3.8822,13.9192458 -16.8789,29.5509708 -34.2064,41.1421498 -8.5423,5.714445 -29.5138,16.092706 -38.7103,19.156789 -11.0583,3.68439 -21.4049,6.344036 -30.3796,7.809015 -2.9992,0.489544 -7.3809,1.207459 -9.7374,1.595388 -2.3565,0.387921 -7.9651,1.085069 -12.4636,1.549211 -15.6308,1.612727 -23.004,2.467862 -27.2639,3.161938 -21.3596,3.480081 -26.3258,4.50815 -30.3261,6.277562 -5.3171,2.351967 -8.2451,4.946145 -10.145,8.987638 -1.493,3.176796 -1.6944,4.708656 -1.4626,11.140626 0.221,6.077699 0.6519,8.276729 2.3397,11.886259 2.5687,5.49399 7.7732,10.56799 15.653,15.2605 3.3276,1.98154 5.9327,3.95479 5.7893,4.38501 -0.1415,0.43023 -7.2512,4.30351 -15.7948,8.60728 -8.5436,4.30379 -17.6339,9.11928 -20.2004,10.70109 -4.6961,2.89472 -8.4933,3.90318 -12.0359,3.19697 z m 56.0558,-45.68004 c 0,-20.057834 0.1234,-22.188637 1.3634,-23.265283 1.9491,-1.694869 22.0176,-4.640865 23.4886,-3.448157 0.9093,0.73707 1.0096,4.050473 0.5954,19.684211 -0.2738,10.338869 -0.7036,19.333029 -0.9544,19.987009 -0.4835,1.26032 -20.2318,9.1223 -22.9138,9.1223 -1.5492,0 -1.5792,-0.42012 -1.5792,-22.08008 z m -91.5574,-61.12673 c -25.3931,-13.273193 -42.7321,-31.225698 -47.5375,-49.2191047 -2.7216,-10.1914953 -1.0542,-24.3849873 4.055,-34.5158973 2.7682,-5.489336 11.2755,-13.575252 17.4835,-16.617873 5.0973,-2.498047 16.2177,-6.422666 22.5215,-7.947906 9.8842,-2.391615 13.6926,-2.753002 28.5202,-2.706015 19.7679,0.06276 24.9028,1.08357 33.1125,6.583916 8.5425,5.72301 14.4015,14.647786 16.6823,25.411276 1.4765,6.966665 1.3997,10.061479 -0.3444,13.900564 -1.8601,4.095974 -4.521,5.940728 -11.7582,8.151234 -7.5713,2.312564 -21.7047,2.569547 -27.4973,0.499962 -5.8366,-2.085173 -9.3377,-4.078178 -13.6883,-7.79162 -6.9122,-5.900188 -10.1882,-7.168487 -18.515,-7.168487 -9.1191,0 -9.8447,0.569518 -10.2677,8.054563 -0.3622,6.389861 1.2435,10.2047433 6.0081,14.2832313 5.3578,4.58582618 38.0487,16.1674607 55.1953,19.5542357 4.819,0.951833 8.7625,1.956265 8.7635,2.232057 0,0.275575 -2.284,1.41633 -5.0774,2.534618 -14.5652,5.830761 -22.6654,10.696491 -37.1749,22.329754 -4.7758,3.82892 -9.4036,6.953482 -10.2842,6.943402 -0.8805,-0.0102 -5.4695,-2.040447 -10.1976,-4.51191 z m 92.2164,-32.934834 c -0.4978,-0.30781 -1.0422,-38.347463 -1.5333,-107.115847 -0.4197,-58.651369 -0.9241,-107.420119 -1.1228,-108.374999 -0.2252,-1.0822 -2.5217,-3.19418 -6.097,-5.6068 -11.7073,-7.90009 -17.5846,-18.29422 -17.6036,-31.13236 -0.043,-17.74927 11.5961,-32.53206 29.1772,-37.11126 5.9624,-1.55308 10.251,-1.43687 17.3726,0.47064 13.2978,3.56182 22.5242,12.18374 27.1997,25.41764 1.6601,4.69923 1.8724,18.07236 0.349,22.04467 -3.3357,8.70384 -9.1244,16.25072 -16.1984,21.1177 -1.8468,1.27067 -3.7414,3.02621 -4.2096,3.9011 -0.5936,1.10956 -1.0625,33.66901 -1.5501,107.616869 -0.5546,84.163449 -0.9034,106.2265115 -1.6918,106.9984265 -1.063,1.0408165 -22.7018,2.6342875 -24.0934,1.7742205 z m -75.8945,-91.403228 c -18.8689,-3.099758 -31.4025,-10.620745 -40.0058,-24.005718 -1.8588,-2.89198 -3.7063,-5.2581 -4.1049,-5.2581 -0.3975,0 -2.2334,1.03799 -4.0771,2.3066 -5.8948,4.0556 -15.0205,7.909619 -22.0888,9.328379 -5.5194,1.108 -8.8617,1.04466 -15.2343,-0.28882 -13.8136,-2.890169 -24.5724,-12.165429 -29.3679,-25.318269 l -1.6442,-4.5092 -12.5934,-0.40674 c -10.2143,-0.32989 -13.4019,-0.7149 -16.877,-2.03876 -8.2818,-3.15496 -12.0201,-7.88096 -14.7728,-18.67714 -1.1959,-4.69025 -1.5032,-5.17296 -3.2072,-5.03632 -6.835,0.54828 -20.4291,0.20624 -23.6951,-0.59597 -11.0023,-2.70248 -20.6859,-10.915 -26.0846,-22.12232 -1.7203,-3.57008 -3.1273,-7.40192 -3.1273,-8.51518 v -2.02415 l 8.7637,0.0176 c 30.1408,0.0557 114.2834,-2.51626 129.1151,-3.94659 14.7245,-1.41995 32.8214,-4.33684 38.1699,-6.15232 1.0709,-0.36345 4.5765,-1.44172 7.7898,-2.39589 3.2134,-0.95418 11.9991,-3.94429 19.5238,-6.64468 16.7773,-6.02078 25.5615,-7.46327 35.8546,-5.88755 11.8743,1.81769 14.5426,4.00769 19.4512,15.9638 4.256,10.36539 8.9514,14.31081 18.6224,15.64874 l 5.867,0.81161 0.1988,45.66437 c 0.1898,42.597837 0.1099,45.774969 -1.1681,47.310588 -1.472,1.769011 -5.4374,2.70242 -23.9598,5.639978 -12.7692,2.025066 -32.6109,2.568836 -41.3503,1.133158 z m 148.07,0.66695 c -1.2856,-0.181069 -5.6674,-0.705019 -9.7373,-1.164564 -14.4072,-1.626763 -27.512,-4.873772 -28.9777,-7.179834 -0.6894,-1.084858 -0.6496,-47.67965 0.061,-74.14375 l 0.4818,-17.89299 5.4526,-0.8412 c 6.5892,-1.0165 10.6198,-2.85824 13.3822,-6.11487 1.7679,-2.0846 5.3913,-9.20786 8.6562,-17.01906 2.3296,-5.57236 12.2773,-9.18559 25.2437,-9.16909 8.3145,0.009 11.4583,0.75955 24.376,5.80679 15.9664,6.23857 24.1172,8.66061 38.178,11.34531 2.5706,0.4908 6.2511,1.19487 8.1794,1.5646 17.3774,3.3325 34.3202,4.21526 121.3861,6.32451 l 38.4256,0.93089 -0.5127,2.73154 c -1.3126,6.99696 -8.6201,17.89721 -15.5403,23.18139 -8.4137,6.42426 -16.8957,8.51009 -30.0286,7.38435 -9.2065,-0.78919 -10.1265,-0.39922 -10.1265,4.29223 0,1.38216 -0.7261,4.2067 -1.6132,6.27681 -4.6926,10.9476 -12.095,14.39439 -31.4932,14.66563 l -10.9058,0.15236 -1.9478,4.60721 c -6.2449,14.77524 -16.0079,22.95147 -31.0023,25.964899 -5.6458,1.13453 -9.2594,1.04302 -15.4932,-0.3926 -6.6259,-1.5259 -13.3374,-4.436379 -19.09,-8.278599 -2.4404,-1.62965 -4.7308,-2.963 -5.0902,-2.963 -0.3622,0 -1.2581,1.02324 -1.9971,2.27384 -1.7738,3.00304 -8.1491,10.888549 -10.6443,13.165833 -3.3753,3.080906 -10.7518,7.904714 -14.6337,9.570083 -7.4558,3.198681 -15.5248,4.545239 -29.3953,4.905606 -7.2921,0.18945 -14.3105,0.196517 -15.5956,0.0177 z"
       id="path1" /></g></svg>
